<mxfile host="65bd71144e" modified="2024-04-22T07:03:46.437Z" agent="Mozilla/5.0 (Windows NT 10.0; Win64; x64) AppleWebKit/537.36 (KHTML, like Gecko) Code/1.88.1 Chrome/120.0.6099.291 Electron/28.2.8 Safari/537.36" version="24.2.7" etag="26FOTwmmdYrfMxsF5hLI" type="embed">
    <diagram id="7huPDzgB2q-7nMH9h2cz" name="第1頁">
        <mxGraphModel dx="1370" dy="787" grid="1" gridSize="10" guides="1" tooltips="1" connect="1" arrows="1" fold="1" page="1" pageScale="1" pageWidth="827" pageHeight="1169" math="0" shadow="0">
            <root>
                <mxCell id="0"/>
                <mxCell id="1" parent="0"/>
                <mxCell id="7" style="edgeStyle=none;html=1;exitX=0.5;exitY=1;exitDx=0;exitDy=0;" parent="1" source="2" target="3" edge="1">
                    <mxGeometry relative="1" as="geometry"/>
                </mxCell>
                <mxCell id="2" value="Application Amount" style="html=1;" parent="1" vertex="1">
                    <mxGeometry x="260" y="660" width="220" height="50" as="geometry"/>
                </mxCell>
                <mxCell id="8" style="edgeStyle=none;html=1;exitX=0.5;exitY=1;exitDx=0;exitDy=0;" parent="1" source="3" target="4" edge="1">
                    <mxGeometry relative="1" as="geometry"/>
                </mxCell>
                <mxCell id="3" value="Information Confirmation and Review" style="html=1;" parent="1" vertex="1">
                    <mxGeometry x="250" y="770" width="240" height="50" as="geometry"/>
                </mxCell>
                <mxCell id="9" style="edgeStyle=none;html=1;exitX=0.5;exitY=1;exitDx=0;exitDy=0;entryX=0.5;entryY=0;entryDx=0;entryDy=0;" parent="1" source="4" target="6" edge="1">
                    <mxGeometry relative="1" as="geometry"/>
                </mxCell>
                <mxCell id="4" value="generate list" style="html=1;" parent="1" vertex="1">
                    <mxGeometry x="265" y="890" width="210" height="50" as="geometry"/>
                </mxCell>
                <mxCell id="6" value="Amount issued" style="html=1;" parent="1" vertex="1">
                    <mxGeometry x="300" y="1020" width="140" height="50" as="geometry"/>
                </mxCell>
            </root>
        </mxGraphModel>
    </diagram>
</mxfile>